<?xml version="1.0" encoding="utf-8"?>
<!-- Generator: Adobe Illustrator 27.5.0, SVG Export Plug-In . SVG Version: 6.00 Build 0)  -->
<svg version="1.1" id="Capa_1" xmlns="http://www.w3.org/2000/svg" xmlns:xlink="http://www.w3.org/1999/xlink" x="0px" y="0px"
	 viewBox="0 0 2122 2122" style="enable-background:new 0 0 2122 2122;" xml:space="preserve">
<path style="fill:#E2F3FE;" d="M1967.365,324.579c-0.648-14.568-3.143-34.024-5.24-48.443c0-0.049-0.098-0.548-0.248-1.496
	l-0.1-0.648c-0.09-0.546-0.227-1.211-0.38-1.929c-0.27-1.352-0.634-3.055-1.067-4.938l-0.073-0.329l-0.002-0.014l-0.224-0.972
	c-0.348-1.596-0.796-3.393-1.347-5.289l-0.197-0.799c-0.251-0.848-0.5-1.744-0.75-2.643l-0.149-0.548v-0.051
	c-0.723-2.372-1.55-4.884-2.431-7.432l-0.317-0.896c-0.299-0.853-0.575-1.688-0.894-2.545c-1.797-4.741-5.04-11.825-10.078-18.112
	l-0.66-0.733c-6.982-8.312-16.351-12.779-22.643-15.535c-0.451-0.2-0.928-0.412-1.342-0.594c-5.24-2.295-12.473-4.638-17.913-6.236
	c-5.566-1.578-12.658-3.269-18.952-4.653c-1.659-0.37-3.301-0.731-4.799-1.048c-6.112-1.301-13.747-2.448-20.802-3.374
	c-2.904-0.388-5.729-0.748-8.28-1.053c-9.679-1.148-22.599-1.995-32.28-2.745c-14.069-1.096-32.926-1.296-47.045-1.196
	c-8.918,0.056-17.778,0.275-26.607,0.57c-2.309,0.076-4.604,0.171-6.906,0.261c-7.125,0.285-14.214,0.638-21.259,1.065
	c-1.788,0.107-3.584,0.192-5.364,0.309c-8.563,0.56-17.06,1.215-25.481,1.959c-1.812,0.161-3.596,0.343-5.401,0.511
	c-6.938,0.646-13.822,1.347-20.643,2.102c-2.032,0.227-4.063,0.446-6.085,0.682c-16.928,1.961-33.44,4.231-49.464,6.731
	c-1.331,0.21-2.646,0.419-3.971,0.631c-7.864,1.252-15.64,2.543-23.24,3.891l-0.18,0.031c-8.058,1.427-15.934,2.909-23.669,4.417
	l-0.868,0.161l0.008,0.003c-27.257,5.33-52.404,11.06-74.675,16.638c-65.905,16.514-118.589,34.724-144.183,44.153
	c-24.346,8.979-56.626,21.703-80.472,31.881c-21.354,9.13-49.194,22.499-70.097,32.429c-25.445,12.021-58.621,29.534-82.519,44.302
	c-1.313,0.811-2.68,1.654-4.019,2.482l-603.854,66.811l-179.427,60.144L157.094,727.88l33.985,22.456l214.574-63.31l253.062,118.896
	c-18.509,29.265-31.788,52.734-38.989,65.408c-7.033,12.321-16.063,28.935-22.451,41.659c-11.725,23.646-27.24,55.228-37.917,79.373
	c-5.437,12.273-12.521,28.687-17.361,41.211c-3.491,9.031-6.385,16.614-8.879,22.999c-12.324,31.98-13.421,35.471-20.256,56.275
	c-3.89,11.925-9.179,27.839-12.572,39.912c-3.143,11.026-7.435,25.744-10.378,36.87c-2.994,11.476-6.984,26.891-9.53,38.565
	c-0.992,4.631-2.063,9.637-3.155,14.825c-4.806,2.283-9.474,4.758-13.849,7.613c-2.678,13.157-5.182,26.429-7.006,37.82
	c-1.823,11.276-3.929,26.37-5.352,37.649c-0.171,1.352-0.336,2.867-0.502,4.329c-99.639,49.486-327.534,203.351-293.943,592.179
	c0,0,402.694,82.555,601.295-270.355c11.094-0.728,24.382-1.793,39.215-3.384c16.12-1.708,25.688-2.848,38.617-4.726
	c3.393-4.28,6.497-8.862,9.305-13.732c4.777-0.753,10.127-1.605,16.288-2.597c11.624-1.895,27.14-5.04,38.665-7.384
	c11.276-2.395,26.192-5.888,37.369-8.432c4.538-1.001,9.61-2.236,14.811-3.559l16.914,63.893l-117.228,117.863l7.32,20.563
	l219.486-74.507l103.766-98.141l65.459-141.822c23.842-12.273,60.124-31.793,99.71-56.585L1425.382,1611l-77.9,176.416
	l78.599-53.138l-78.597,53.138l14.224,26.913l194.857-131.736l71.03-147.747l33.165-371.415
	c13.766-16.862,27.844-35.031,38.592-50.585c13.771-19.956,32.629-46.197,45.7-66.602c14.719-23.001,33.725-54.083,46.748-78.129
	c10.926-20.356,25.494-47.596,35.62-68.4c11.077-22.899,25.047-53.832,34.974-77.281c8.383-19.856,18.858-46.697,26.193-67.053
	c1.432-3.99,2.935-8.287,4.456-12.692l0.134-0.378l0.4-1.15l0.334-0.984c0.322-0.93,0.651-1.912,0.972-2.858
	c0.833-2.431,1.669-4.889,2.507-7.381c0.195-0.575,0.38-1.121,0.577-1.698l0.239-0.716l0.434-1.289
	c0.17-0.509,0.341-1.02,0.511-1.532c1.603-4.801,3.203-9.632,4.775-14.429c0.178-0.543,0.356-1.113,0.578-1.69
	c0.375-1.221,0.767-2.422,1.159-3.63c2.67-8.207,5.235-16.18,7.523-23.362c5.486-17.369,11.562-39.347,17.101-61.003
	c0.682-2.663,1.352-5.313,2.015-7.956l0.005-0.015c0.176-0.704,0.361-1.415,0.536-2.119v-0.044l0.115-0.465
	c0.519-2.134,1.069-4.232,1.581-6.324c0.395-1.693,0.789-3.316,1.184-4.963c0.168-0.694,0.334-1.403,0.499-2.092
	c0.139-0.57,0.275-1.157,0.411-1.727c0.158-0.687,0.319-1.349,0.477-2.026c0.594-2.502,1.198-5.026,1.759-7.44
	c0.305-1.316,0.59-2.575,0.885-3.864c0.28-1.227,0.568-2.472,0.838-3.671c0.292-1.286,0.541-2.456,0.818-3.703
	c0.139-0.629,0.273-1.237,0.41-1.858c0.387-1.759,0.774-3.518,1.132-5.189c0.551-2.57,1.074-5.057,1.552-7.401l0.273-1.337
	c0.551-2.728,1.065-5.345,1.498-7.691c1.318-7.145,2.831-15.138,4.353-23.369c1.586-8.563,3.16-17.357,4.565-25.835
	c0.424-2.562,0.838-5.098,1.225-7.576c0.119-0.78,0.232-1.535,0.348-2.302c0.482-3.184,0.935-6.295,1.321-9.24
	c2.694-21.03,5.415-47.391,7.408-71.191c0.665-7.922,1.247-15.557,1.722-22.604c0.648-9.578,0.897-20.782,0.877-31.983
	C1968.076,345.403,1967.788,334.187,1967.365,324.579z"/>
<path style="fill:#AA3324;" d="M1228.8,1505.938c-1.406,0.699-2.69,1.337-3.805,1.893c-12.77,6.336-29.934,14.567-42.955,20.205
	c-24.295,10.477-56.675,24.246-81.32,33.625c-12.624,4.792-29.435,10.977-42.207,15.118c-6.036,1.946-11.425,3.742-16.214,5.288
	c-1.995,0.648-3.941,1.296-5.737,1.895c-2.545,0.799-4.94,1.595-7.186,2.295c-27.14,8.782-32.078,10.178-51.586,15.418
	c-7.652,2.036-16.843,4.529-25.65,6.768l16.914,63.893l-117.228,117.863l7.32,20.563l219.486-74.507l103.766-98.141l65.459-141.822
	C1240.091,1500.288,1233.597,1503.55,1228.8,1505.938z"/>
<path style="fill:#D34734;" d="M1655.577,1169.741l12.139-84.202c-53.958,81.301-138.869,182.387-268.406,263.496
	c-25.128,15.732-49.941,29.466-74.088,41.481l22.346,49.191L1425.382,1611l-77.9,176.416l78.599-53.138l-78.597,53.138
	l14.224,26.913l194.857-131.736l71.03-147.747l33.165-371.415l6.955-77.893L1655.577,1169.741z"/>
<path style="fill:#D34734;" d="M490.201,452.345l-179.427,60.144L157.094,727.88l33.985,22.456l214.574-63.31l253.062,118.896
	l36.777,17.279c15.194-24.706,31.544-49.632,49.147-74.653c113.279-161.008,245.466-278.979,368.054-365.074l-18.638,2.061
	L490.201,452.345z"/>
<path style="fill:#EAE325;" d="M770.974,1519.804c-24.266-64.168-83.043-135.669-151.362-178.646
	c-12.025-7.549-23.727-13.859-34.997-18.872c-35.427-15.854-66.433-19.466-88.865-11.593l-0.324,0.107
	c-0.755,0.268-1.51,0.592-2.266,0.862c-5.679,2.281-21.208,8.12-42.643,18.768c-99.639,49.486-327.534,203.351-293.943,592.179
	c0,0,402.694,82.555,601.295-270.355c5.086-9.035,10.075-18.278,14.882-27.893c6.741-13.427,10.3-29.335,10.139-47.776
	C782.781,1559.06,778.576,1539.811,770.974,1519.804z"/>
<path style="fill:#832B28;" d="M1167.034,1620.093l-95.72,95.598l-219.488,74.507l7.32,20.563l219.486-74.507l103.766-98.141
	l65.459-141.822c-7.766,3.997-14.261,7.259-19.057,9.647L1167.034,1620.093z"/>
<path style="fill:#C5DDF1;" d="M1888.079,756.701l-0.003,0.008c-1.659-4.76-3.408-9.545-5.23-14.346
	c-0.321-0.846-0.672-1.696-0.996-2.538c-1.493-3.874-3.02-7.749-4.619-11.642c-0.604-1.469-1.242-2.945-1.858-4.419
	c-1.354-3.228-2.726-6.458-4.151-9.698c-0.853-1.937-1.737-3.878-2.617-5.82c-1.215-2.694-2.446-5.389-3.71-8.09
	c-1.157-2.473-2.344-4.948-3.542-7.425c-0.977-2.021-1.963-4.044-2.964-6.071c-1.571-3.164-3.162-6.329-4.794-9.498
	c-0.565-1.104-1.142-2.207-1.715-3.313c-4.478-8.582-9.159-17.179-14.081-25.778c-3.591,7.732-7.132,15.167-10.377,21.902
	c-10.127,20.804-24.694,48.044-35.62,68.4c-13.023,24.046-32.029,55.128-46.748,78.126c-13.072,20.407-31.929,46.648-45.7,66.604
	c-16.511,23.898-40.909,54.032-59.917,75.983c-16.266,18.858-38.017,44.103-55.827,61.464
	c-18.161,17.662-42.058,41.36-60.716,58.373c-14.967,13.52-35.374,31.082-51.389,43.406c-12.272,9.428-28.387,22.5-41.008,31.43
	c-23.401,16.663-54.879,38.565-79.128,53.881c-57.822,36.47-109.407,62.066-126.372,70.446
	c-12.77,6.336-29.934,14.568-42.955,20.255c-24.295,10.427-56.675,24.197-81.32,33.576c-12.624,4.789-29.435,11.026-42.207,15.167
	c-49.094,15.966-54.93,17.861-73.788,22.95c-53.084-105.417-146.777-205.001-258.682-263.97
	c-69.198-36.47-135.651-52.285-192.925-49.491c-12.324,31.98-13.421,35.471-20.256,56.275c-3.89,11.925-9.179,27.839-12.572,39.912
	c-3.143,11.026-7.435,25.744-10.378,36.87c-2.994,11.476-6.984,26.891-9.53,38.565c-0.992,4.631-2.063,9.637-3.155,14.825
	c46.465-22.056,112.334-17.098,182.48,19.859c124.392,65.556,214.84,206.638,201.968,315.14
	c-2.36,20.027-8.112,37.559-16.667,52.395c4.777-0.753,10.127-1.605,16.288-2.597c11.624-1.895,27.14-5.04,38.665-7.384
	c11.276-2.395,26.192-5.888,37.369-8.432c4.538-1.001,9.61-2.236,14.811-3.559c8.807-2.239,17.998-4.731,25.65-6.768
	c19.508-5.24,24.446-6.636,51.586-15.418c2.246-0.699,4.641-1.496,7.186-2.295c1.796-0.599,3.742-1.247,5.737-1.895
	c4.789-1.547,10.178-3.342,16.214-5.288c12.772-4.141,29.583-10.326,42.207-15.118c24.645-9.379,57.026-23.147,81.32-33.625
	c13.021-5.637,30.185-13.869,42.955-20.205c1.115-0.556,2.399-1.194,3.805-1.893c4.797-2.388,11.291-5.65,19.057-9.647
	c23.842-12.273,60.124-31.793,99.71-56.585l-22.346-49.191c24.146-12.015,48.96-25.749,74.088-41.481
	c129.537-81.109,214.448-182.195,268.406-263.496l-12.139,84.202l12.139-84.202l-6.955,77.893
	c13.766-16.862,27.844-35.031,38.592-50.585c13.771-19.956,32.629-46.197,45.7-66.602c14.719-23.001,33.725-54.083,46.748-78.129
	c10.926-20.356,25.494-47.596,35.62-68.4c11.077-22.899,25.047-53.832,34.974-77.281c8.183-19.406,18.41-45.549,25.693-65.705
	L1888.079,756.701z"/>
<path style="fill:#C5DDF1;" d="M1932.838,610.45l-0.007,0.031c-0.641-1.264-1.321-2.531-1.971-3.798
	c-2.154-4.185-4.351-8.373-6.604-12.56c-1.213-2.254-2.436-4.507-3.676-6.763c-2.948-5.349-5.936-10.701-9.043-16.049
	c-0.528-0.908-1.082-1.814-1.612-2.723c-3.121-5.323-6.312-10.641-9.583-15.953c-0.643-1.048-1.286-2.097-1.934-3.145
	c-3.832-6.163-7.742-12.321-11.766-18.463c-7.184,19.506-16.563,43.503-24.246,61.664c-1.147,2.743-2.395,5.588-3.642,8.531
	c0.356,0.578,0.68,1.157,1.033,1.735c4.404,7.182,8.701,14.368,12.838,21.562l0.524,0.923c4.002,6.984,7.856,13.968,11.598,20.95
	c0.533,0.994,1.079,1.988,1.606,2.981c3.707,6.989,7.271,13.971,10.706,20.94c0.585,1.189,1.154,2.375,1.732,3.564
	c3.469,7.138,6.84,14.263,10.01,21.367l-0.007,0.022c1.547-4.741,2.994-9.33,4.392-13.671c5.478-17.391,11.554-39.371,17.101-61.003
	c0.682-2.663,1.352-5.313,2.015-7.956l0.005-0.015c0.176-0.704,0.361-1.415,0.536-2.119v-0.044v-0.005L1932.838,610.45z"/>
<path style="fill:#F7FCFF;" d="M851.378,769.324c88.156-92.278,183.817-177.379,285.68-254.256
	c98.628-74.436,205.301-134.502,308.567-201.203c-5.074,0.59-10.173,1.169-15.204,1.963l-14.994,2.682
	c-75.101,14.495-147.654,37.732-216.84,70.512c-196.719,93.204-369.734,259.966-453.361,462.804
	c-7.763,18.836-14.77,37.966-20.499,57.625c13.973-14.977,27.255-30.151,40.57-45.128
	C793.704,832.364,821.831,800.255,851.378,769.324z"/>
<path style="fill:#605E6F;" d="M659.707,1262.878c-70.146-36.957-136.015-41.915-182.48-19.859
	c-4.806,2.283-9.474,4.758-13.849,7.613c-2.678,13.157-5.182,26.429-7.006,37.82c-1.823,11.276-3.929,26.37-5.352,37.649
	c-0.171,1.352-0.336,2.867-0.502,4.329c21.435-10.648,36.965-16.487,42.643-18.768c0.755-0.27,1.51-0.594,2.266-0.862l0.324-0.107
	c22.431-7.873,53.438-4.261,88.865,11.593c11.269,5.014,22.972,11.323,34.997,18.872c68.319,42.977,127.096,114.477,151.362,178.646
	c7.603,20.007,11.808,39.257,11.917,56.782c0.161,18.441-3.398,34.349-10.139,47.776c-4.806,9.615-9.795,18.858-14.882,27.893
	c11.094-0.728,24.382-1.793,39.215-3.384c16.12-1.708,25.688-2.848,38.617-4.726c3.393-4.28,6.497-8.862,9.305-13.732
	c8.556-14.836,14.307-32.368,16.667-52.395C874.547,1469.516,784.099,1328.434,659.707,1262.878z"/>
<path style="fill:#373F4D;" d="M818.445,1491.579c-7.291-23.715-16.855-46.974-29.608-68.536
	c-12.73-21.52-27.756-41.825-45.22-59.839c-17.698-17.757-37.216-33.647-58.244-47.089c-21.125-13.262-43.393-24.614-66.628-33.24
	c-23.138-8.863-47.074-15.279-71.237-19.813c-24.207-4.222-48.731-6.879-73.165-5.931c48.21,7.026,94.841,20.68,138.468,40.078
	c21.681,9.971,42.731,21.179,62.214,34.653c19.588,13.276,37.922,28.302,54.292,45.247c16.643,16.706,30.836,35.669,43.316,55.654
	c12.977,19.778,22.341,41.668,31.047,63.773c16.288,44.775,24.887,92.546,28.984,141.145
	C836.876,1589.094,832.62,1539.243,818.445,1491.579z"/>
<path style="fill:#D34734;" d="M1590.257,237.281c117.281,73.698,223.008,181.622,296.389,293.729
	c0.648-1.839,1.296-3.63,1.941-5.372c7.883-21.902,17.513-51.537,24.597-73.788c12.321-39.013,27.639-101.279,33.077-130.862
	c3.542-19.157,8.482-44.253,11.325-64.309c0.387,1.257,0.723,2.511,1.065,3.722c-0.329-1.216-0.682-2.47-1.065-3.769
	c-0.714-2.421-1.52-4.97-2.431-7.586l-0.317-0.896c-0.297-0.838-0.599-1.678-0.916-2.526c-1.795-4.777-5.001-11.803-10.08-18.156
	l-0.636-0.709c-6.982-8.312-16.351-12.779-22.643-15.535c-0.458-0.202-0.943-0.417-1.364-0.599
	c-5.209-2.26-12.422-4.645-17.878-6.209c-5.579-1.596-12.675-3.281-18.965-4.675c-1.659-0.37-3.301-0.731-4.799-1.048
	c-6.112-1.301-13.747-2.448-20.802-3.374c-2.916-0.383-5.744-0.733-8.309-1.031c-9.642-1.126-22.565-2.003-32.244-2.75
	c-14.083-1.084-32.943-1.291-47.067-1.206c-8.911,0.054-17.771,0.27-26.592,0.563c-2.309,0.076-4.604,0.171-6.906,0.261
	c-7.125,0.285-14.214,0.638-21.259,1.065c-1.788,0.107-3.584,0.192-5.364,0.309c-8.563,0.56-17.06,1.215-25.481,1.959
	c-1.812,0.161-3.596,0.343-5.401,0.511c-6.938,0.646-13.822,1.347-20.643,2.102c-2.032,0.227-4.063,0.446-6.085,0.682
	c-16.921,1.964-33.447,4.231-49.464,6.731c-1.331,0.21-2.646,0.419-3.971,0.631c-7.864,1.252-15.64,2.543-23.24,3.891l-0.18,0.031
	c-8.351,1.481-16.536,3.011-24.536,4.577C1563.243,220.872,1576.666,228.743,1590.257,237.281z"/>
<path style="fill:#AA3324;" d="M1967.365,324.63c-0.648-14.619-3.143-34.024-5.24-48.494l-0.015-0.063l-0.034-0.137l-0.1-0.648
	c-0.2-0.897-0.448-2.543-0.899-4.69v-0.048c-0.263-1.186-0.57-2.619-0.911-4.132l-0.137-0.609l-0.139-0.551
	c-0.353-1.435-0.733-2.928-1.159-4.551l-0.049-0.188l-0.031-0.119c-0.341-1.211-0.677-2.466-1.065-3.722
	c-2.843,20.056-7.783,45.152-11.325,64.309c-5.438,29.583-20.755,91.849-33.077,130.862c-7.084,22.251-16.714,51.885-24.597,73.788
	c-0.646,1.742-1.294,3.532-1.941,5.372l-0.005,0.017c4.024,6.141,7.934,12.3,11.766,18.463c0.65,1.048,1.291,2.095,1.934,3.145
	c3.271,5.313,6.463,10.631,9.583,15.953c0.531,0.909,1.084,1.815,1.612,2.723c3.106,5.347,6.095,10.7,9.043,16.049
	c1.242,2.256,2.463,4.507,3.676,6.763c2.254,4.187,4.451,8.375,6.604,12.56c0.643,1.254,1.345,2.511,1.978,3.766l0.002,0.002
	l0.115-0.46c0.519-2.134,1.069-4.232,1.581-6.324c0.395-1.693,0.789-3.316,1.184-4.963c0.168-0.694,0.334-1.403,0.499-2.092
	c0.139-0.57,0.275-1.157,0.411-1.727c0.451-1.946,0.899-3.841,1.347-5.737c2.558-10.884,4.797-20.936,6.524-29.415l0.273-1.337
	c0.556-2.758,1.055-5.345,1.486-7.712c2.468-13.313,5.581-29.481,8.202-44.843c1.408-8.241,2.682-16.263,3.622-23.457
	c2.694-21.03,5.415-47.418,7.408-71.191c0.665-7.922,1.247-15.557,1.722-22.604c0.648-9.578,0.897-20.782,0.877-31.983
	C1968.076,345.408,1967.788,334.209,1967.365,324.63z"/>
<path style="fill:#D34734;" d="M1543.09,279.927c-28.453-17.881-56.383-33.055-83.53-45.566
	c-24.731,6.497-47.272,13.108-66.853,19.245c40.144,13.705,83.245,34.618,127.637,62.514
	c130.465,81.983,246.423,207.201,317.473,331.907c7.123-15.442,14.592-32.073,20.921-46.77
	C1783.26,478.798,1669.682,359.476,1543.09,279.927z"/>
<path style="fill:#AA3324;" d="M1906.349,702.798c0.843-2.528,1.637-5.008,2.431-7.489l0.012-0.044
	c-3.165-7.108-6.531-14.243-10.003-21.388c-0.577-1.189-1.147-2.375-1.732-3.564c-3.435-6.97-6.997-13.951-10.706-20.94
	c-0.526-0.994-1.072-1.988-1.606-2.981c-3.742-6.982-7.596-13.966-11.598-20.95l-0.524-0.923
	c-4.136-7.196-8.436-14.382-12.838-21.562c-0.353-0.577-0.677-1.157-1.033-1.735l-0.014,0.034
	c-6.329,14.697-13.798,31.328-20.921,46.77l-0.02,0.044c4.921,8.599,9.603,17.196,14.081,25.778
	c0.575,1.106,1.147,2.209,1.715,3.313c1.632,3.169,3.223,6.334,4.794,9.498c1.004,2.027,1.988,4.049,2.964,6.071
	c1.199,2.478,2.385,4.953,3.542,7.425c1.267,2.702,2.492,5.396,3.71,8.09c0.88,1.942,1.764,3.883,2.617,5.82
	c1.425,3.24,2.794,6.47,4.151,9.698c0.616,1.474,1.255,2.95,1.858,4.419c1.599,3.893,3.126,7.771,4.619,11.642
	c0.324,0.843,0.675,1.693,0.996,2.538c1.823,4.799,3.576,9.581,5.233,14.339l0.01,0.029l0.251-0.697l0.085-0.28l0.112-0.371
	c0.799-2.195,1.598-4.49,2.446-6.833c0.361-1.06,0.755-2.151,1.135-3.23c0.312-0.877,0.612-1.745,0.926-2.629l0.134-0.378l0.4-1.15
	l0.334-0.984c0.322-0.93,0.651-1.912,0.972-2.858c0.829-2.438,1.659-4.882,2.507-7.381c0.195-0.575,0.38-1.121,0.577-1.698
	l0.239-0.716c1.91-5.656,3.781-11.395,5.649-17.045l0.053-0.153l0.017-0.051c0.178-0.543,0.356-1.113,0.578-1.69
	c0.375-1.221,0.767-2.422,1.159-3.63l0.153-0.487C1905.993,703.916,1906.176,703.346,1906.349,702.798z"/>
<polygon style="fill:#AA3324;" points="1655.577,1169.741 1606.164,1512.503 1542.34,1655.679 1426.081,1734.278 1347.484,1787.416 
	1361.709,1814.329 1556.566,1682.593 1627.596,1534.846 1660.761,1163.431 1667.715,1085.538 "/>
<polygon style="fill:#AA3324;" points="518.876,482.82 1112.693,383.473 1094.055,385.534 490.201,452.345 310.774,512.489 
	157.094,727.88 191.079,750.335 344.762,534.942 "/>
<path style="fill:#DA802E;" d="M579.168,1323.794c-0.484,0.217-0.969,0.378-1.51,0.594
	c-21.569,8.682-253.975,93.179-226.475,411.108c0,0,285.037,58.506,414.613-200.702c2.263-4.582,4.044-9.598,5.177-14.991
	c-24.266-64.168-83.043-135.669-151.362-178.646c-12.025-7.549-23.727-13.859-34.997-18.872c-1.834,0.378-3.559,0.863-5.23,1.454
	L579.168,1323.794z"/>
<path style="fill:#FFFFFF;" d="M1643.952,665.39c-68.823-109.686-201.403-150.421-296.128-90.987
	c-94.726,59.434-115.725,196.533-46.901,306.219c68.821,109.683,201.401,150.421,296.127,90.987
	C1691.774,912.174,1712.773,775.073,1643.952,665.39z"/>
<path style="fill:#356EB5;" d="M1627.131,675.943c-56.833-90.577-166.317-124.217-244.541-75.135
	c-22.855,14.341-40.47,34.183-52.599,57.31l0.007-0.119c-0.251,0.477-0.453,0.982-0.699,1.462c-1.32,2.575-2.572,5.191-3.756,7.842
	c-0.317,0.711-0.651,1.413-0.957,2.129c-1.401,3.264-2.707,6.582-3.902,9.951c-0.22,0.614-0.41,1.24-0.619,1.856
	c-0.974,2.848-1.871,5.727-2.699,8.641c-0.256,0.896-0.511,1.79-0.753,2.694c-1.868,6.999-3.315,14.165-4.339,21.461
	c-0.134,0.955-0.251,1.912-0.37,2.872c-0.38,3.057-0.687,6.132-0.918,9.226c-0.051,0.677-0.124,1.349-0.166,2.031
	c-0.236,3.688-0.356,7.406-0.378,11.138c-0.005,0.863,0.017,1.727,0.024,2.589c0.022,3.028,0.114,6.069,0.278,9.118
	c0.051,0.964,0.092,1.924,0.158,2.889c0.256,3.776,0.597,7.561,1.07,11.354c0.058,0.475,0.144,0.947,0.207,1.42
	c0.441,3.362,0.981,6.729,1.596,10.095c0.192,1.047,0.39,2.095,0.599,3.142c0.668,3.369,1.41,6.741,2.254,10.107
	c0.119,0.475,0.214,0.952,0.338,1.428c0.972,3.783,2.081,7.556,3.274,11.323c0.314,0.994,0.655,1.983,0.984,2.974
	c1.006,3.016,2.083,6.022,3.23,9.021c0.344,0.899,0.667,1.798,1.023,2.694c1.481,3.717,3.062,7.418,4.765,11.096
	c0.341,0.738,0.719,1.469,1.069,2.207c1.445,3.035,2.972,6.054,4.57,9.053c0.538,1.008,1.075,2.015,1.628,3.016
	c2.015,3.644,4.105,7.272,6.351,10.85c56.831,90.577,166.314,124.217,244.538,75.137c2.543-1.596,5.016-3.267,7.43-4.994
	c0.801-0.575,1.561-1.194,2.35-1.784c1.583-1.181,3.165-2.363,4.687-3.598c0.911-0.74,1.781-1.52,2.67-2.277
	c1.342-1.145,2.687-2.288,3.98-3.476c0.916-0.838,1.791-1.71,2.682-2.57c1.208-1.167,2.417-2.336,3.581-3.54
	c0.881-0.913,1.732-1.849,2.589-2.784c1.111-1.208,2.212-2.424,3.279-3.667c0.836-0.972,1.647-1.963,2.456-2.957
	c1.023-1.257,2.032-2.524,3.013-3.813c0.78-1.023,1.542-2.059,2.297-3.104c0.947-1.311,1.873-2.638,2.779-3.98
	c0.719-1.065,1.425-2.134,2.117-3.218c0.877-1.369,1.722-2.758,2.553-4.156c0.653-1.097,1.306-2.195,1.932-3.308
	c0.809-1.44,1.581-2.899,2.346-4.363c0.58-1.114,1.167-2.222,1.722-3.35c0.75-1.523,1.457-3.072,2.161-4.624
	c0.502-1.106,1.018-2.205,1.496-3.323c0.701-1.644,1.352-3.316,2.003-4.987c0.412-1.06,0.848-2.107,1.24-3.179
	c0.69-1.883,1.313-3.796,1.937-5.708c0.29-0.887,0.609-1.759,0.884-2.653c1.742-5.652,3.201-11.425,4.378-17.296
	c0.183-0.916,0.321-1.844,0.49-2.762c0.375-2.031,0.745-4.066,1.053-6.119c0.168-1.133,0.292-2.28,0.441-3.42
	c0.241-1.854,0.485-3.708,0.67-5.576l0.112-0.923l-0.041,0.073C1663.772,764.438,1653.38,717.78,1627.131,675.943z"/>
<path style="fill:#24488E;" d="M1607.134,864.503c-78.224,49.079-187.708,15.44-244.541-75.137
	c-26.209-41.771-36.64-88.358-32.601-131.247l0.007-0.119c-0.251,0.477-0.453,0.982-0.699,1.462
	c-1.32,2.575-2.572,5.191-3.756,7.842c-0.317,0.711-0.651,1.413-0.957,2.129c-1.401,3.264-2.707,6.582-3.902,9.951
	c-0.22,0.614-0.41,1.24-0.619,1.856c-0.974,2.848-1.871,5.727-2.699,8.641c-0.256,0.896-0.511,1.79-0.753,2.694
	c-1.868,6.999-3.315,14.165-4.339,21.461c-0.134,0.955-0.251,1.912-0.37,2.872c-0.38,3.057-0.687,6.132-0.918,9.226
	c-0.051,0.677-0.124,1.349-0.166,2.031c-0.236,3.688-0.356,7.406-0.378,11.138c-0.005,0.863,0.017,1.727,0.024,2.589
	c0.022,3.028,0.114,6.069,0.278,9.118c0.051,0.964,0.092,1.924,0.158,2.889c0.256,3.776,0.597,7.561,1.07,11.354
	c0.058,0.475,0.144,0.947,0.207,1.42c0.441,3.362,0.981,6.729,1.596,10.095c0.192,1.047,0.39,2.095,0.599,3.142
	c0.668,3.369,1.41,6.741,2.254,10.107c0.119,0.475,0.214,0.952,0.338,1.428c0.972,3.783,2.081,7.556,3.274,11.323
	c0.314,0.994,0.655,1.983,0.984,2.974c1.006,3.016,2.083,6.022,3.23,9.021c0.344,0.899,0.667,1.798,1.023,2.694
	c1.481,3.717,3.062,7.418,4.765,11.096c0.341,0.738,0.719,1.469,1.069,2.207c1.445,3.035,2.972,6.054,4.57,9.053
	c0.538,1.008,1.075,2.015,1.628,3.016c2.015,3.644,4.105,7.272,6.351,10.85c56.831,90.577,166.314,124.217,244.538,75.137
	c2.543-1.596,5.016-3.267,7.43-4.994c0.801-0.575,1.561-1.194,2.35-1.784c1.583-1.181,3.165-2.363,4.687-3.598
	c0.911-0.74,1.781-1.52,2.67-2.277c1.342-1.145,2.687-2.288,3.98-3.476c0.916-0.838,1.791-1.71,2.682-2.57
	c1.208-1.167,2.417-2.336,3.581-3.54c0.881-0.913,1.732-1.849,2.589-2.784c1.111-1.208,2.212-2.424,3.279-3.667
	c0.836-0.972,1.647-1.963,2.456-2.957c1.023-1.257,2.032-2.524,3.013-3.813c0.78-1.023,1.542-2.059,2.297-3.104
	c0.947-1.311,1.873-2.638,2.779-3.98c0.719-1.065,1.425-2.134,2.117-3.218c0.877-1.369,1.722-2.758,2.553-4.156
	c0.653-1.097,1.306-2.195,1.932-3.308c0.809-1.44,1.581-2.899,2.346-4.363c0.58-1.114,1.167-2.222,1.722-3.35
	c0.75-1.523,1.457-3.072,2.161-4.624c0.502-1.106,1.018-2.205,1.496-3.323c0.701-1.644,1.352-3.316,2.003-4.987
	c0.412-1.06,0.848-2.107,1.24-3.179c0.69-1.883,1.313-3.796,1.937-5.708c0.29-0.887,0.609-1.759,0.884-2.653
	c1.742-5.652,3.201-11.425,4.378-17.296c0.183-0.916,0.321-1.844,0.49-2.762c0.375-2.031,0.745-4.066,1.053-6.119
	c0.168-1.133,0.292-2.28,0.441-3.42c0.241-1.854,0.485-3.708,0.67-5.576l0.112-0.923l-0.041,0.073
	C1647.557,830.438,1629.935,850.196,1607.134,864.503z"/>
</svg>
